<svg width="58" height="51" viewBox="0 0 58 51" fill="none" xmlns="http://www.w3.org/2000/svg">
<g clip-path="url(#clip0_2861_2249)">
<path d="M56.2596 47.3662H50.2689V13.4795C50.2689 12.6705 49.5081 12.0146 48.5697 12.0146H42.6633V7.62012C42.6633 6.81113 41.9025 6.15527 40.9641 6.15527H37.6616V1.76074C37.6616 0.951758 36.9008 0.295898 35.9624 0.295898H22.0374C21.099 0.295898 20.3382 0.951758 20.3382 1.76074V6.15527H17.0357C16.0973 6.15527 15.3365 6.81113 15.3365 7.62012V12.0146H9.43011C8.49168 12.0146 7.73089 12.6705 7.73089 13.4795V47.3662H1.74023C0.801812 47.3662 0.0410156 48.0221 0.0410156 48.8311C0.0410156 49.64 0.801812 50.2959 1.74023 50.2959H56.2594C57.1979 50.2959 57.9587 49.64 57.9587 48.8311C57.9587 48.0221 57.198 47.3662 56.2596 47.3662ZM23.7366 3.22559H34.2632V6.15527H23.7366V3.22559ZM18.7349 9.08496H39.2649V12.0146H18.7349V9.08496ZM27.3007 47.3662H20.5038V38.6024H27.3007V47.3662ZM37.496 47.3662H30.6991V38.6024H37.496V47.3662ZM46.8705 47.3662H40.8944V37.1376C40.8944 36.3286 40.1336 35.6728 39.1952 35.6728H18.8046C17.8662 35.6728 17.1054 36.3286 17.1054 37.1376V47.3662H11.1293V14.9443H46.8705V47.3662Z" fill="#7261FF"/>
<path d="M39.1953 32.0097C40.1337 32.0097 40.8945 31.3538 40.8945 30.5448V28.4209C40.8945 27.6119 40.1337 26.9561 39.1953 26.9561C38.2569 26.9561 37.4961 27.6119 37.4961 28.4209V30.5448C37.4961 31.3538 38.2569 32.0097 39.1953 32.0097Z" fill="#7261FF"/>
<path d="M32.3984 32.0097C33.3369 32.0097 34.0977 31.3538 34.0977 30.5448V28.4209C34.0977 27.6119 33.3369 26.9561 32.3984 26.9561C31.46 26.9561 30.6992 27.6119 30.6992 28.4209V30.5448C30.6992 31.3538 31.46 32.0097 32.3984 32.0097Z" fill="#7261FF"/>
<path d="M25.6016 32.0097C26.54 32.0097 27.3008 31.3538 27.3008 30.5448V28.4209C27.3008 27.6119 26.54 26.9561 25.6016 26.9561C24.6631 26.9561 23.9023 27.6119 23.9023 28.4209V30.5448C23.9023 31.3538 24.6631 32.0097 25.6016 32.0097Z" fill="#7261FF"/>
<path d="M18.8047 32.0097C19.7431 32.0097 20.5039 31.3538 20.5039 30.5448V28.4209C20.5039 27.6119 19.7431 26.9561 18.8047 26.9561C17.8663 26.9561 17.1055 27.6119 17.1055 28.4209V30.5448C17.1055 31.3538 17.8663 32.0097 18.8047 32.0097Z" fill="#7261FF"/>
<path d="M39.1953 24.1972C40.1337 24.1972 40.8945 23.5413 40.8945 22.7323V20.6084C40.8945 19.7994 40.1337 19.1436 39.1953 19.1436C38.2569 19.1436 37.4961 19.7994 37.4961 20.6084V22.7323C37.4961 23.5413 38.2569 24.1972 39.1953 24.1972Z" fill="#7261FF"/>
<path d="M32.3984 24.1972C33.3369 24.1972 34.0977 23.5413 34.0977 22.7323V20.6084C34.0977 19.7994 33.3369 19.1436 32.3984 19.1436C31.46 19.1436 30.6992 19.7994 30.6992 20.6084V22.7323C30.6992 23.5413 31.46 24.1972 32.3984 24.1972Z" fill="#7261FF"/>
<path d="M25.6016 24.1972C26.54 24.1972 27.3008 23.5413 27.3008 22.7323V20.6084C27.3008 19.7994 26.54 19.1436 25.6016 19.1436C24.6631 19.1436 23.9023 19.7994 23.9023 20.6084V22.7323C23.9023 23.5413 24.6631 24.1972 25.6016 24.1972Z" fill="#7261FF"/>
<path d="M18.8047 24.1972C19.7431 24.1972 20.5039 23.5413 20.5039 22.7323V20.6084C20.5039 19.7994 19.7431 19.1436 18.8047 19.1436C17.8663 19.1436 17.1055 19.7994 17.1055 20.6084V22.7323C17.1055 23.5413 17.8663 24.1972 18.8047 24.1972Z" fill="#7261FF"/>
</g>
<defs>
<clipPath id="clip0_2861_2249">
<rect width="58" height="50" fill="white" transform="translate(0 0.295898)"/>
</clipPath>
</defs>
</svg>
