<svg width="50" height="51" viewBox="0 0 50 51" fill="none" xmlns="http://www.w3.org/2000/svg">
<g clip-path="url(#clip0_2861_2248)">
<path d="M49.0902 11.077L25.5551 0.426185C25.1704 0.252064 24.7293 0.252552 24.3451 0.427161L0.907617 11.0779C0.38457 11.3156 0.0488281 11.837 0.0488281 12.4115V48.831C0.0488281 49.64 0.704687 50.2958 1.51367 50.2958H48.4863C49.2953 50.2958 49.9512 49.64 49.9512 48.831V12.4115C49.9511 11.8362 49.6144 11.3141 49.0902 11.077ZM34.2284 41.5068C35.0374 41.5068 35.6933 40.8509 35.6933 40.0419V38.5771H38.6229V47.3661H29.8339V38.5771H32.7636V40.0419C32.7636 40.851 33.4194 41.5068 34.2284 41.5068ZM38.6229 35.6474H28.369C27.5601 35.6474 26.9042 36.3032 26.9042 37.1122V47.3661H22.9979C22.9979 45.0401 22.9979 27.5136 22.9979 25.3935C22.9979 24.5845 22.3421 23.9286 21.5331 23.9286H11.2792V20.9989H38.6229V35.6474ZM11.2792 35.6474V26.8583H14.2089V28.3232C14.2089 29.1321 14.8647 29.788 15.6737 29.788C16.4827 29.788 17.1386 29.1321 17.1386 28.3232V26.8583H20.0683V35.6474H11.2792ZM11.2792 38.5771H14.2089V40.0419C14.2089 40.8509 14.8647 41.5068 15.6737 41.5068C16.4827 41.5068 17.1386 40.8509 17.1386 40.0419V38.5771H20.0683V47.3661H11.2792V38.5771ZM47.0214 47.3661H41.5526V19.5341C41.5526 18.7251 40.8968 18.0693 40.0878 18.0693H9.81436C9.00537 18.0693 8.34951 18.7251 8.34951 19.5341V47.3661H2.97842V13.3549L24.9523 3.36915L47.0214 13.3566V47.3661Z" fill="#7261FF"/>
<path d="M19.0918 11.7217C19.0918 12.5307 19.7477 13.1865 20.5566 13.1865H29.3457C30.1547 13.1865 30.8105 12.5307 30.8105 11.7217C30.8105 10.9127 30.1547 10.2568 29.3457 10.2568H20.5566C19.7477 10.2568 19.0918 10.9127 19.0918 11.7217Z" fill="#7261FF"/>
</g>
<defs>
<clipPath id="clip0_2861_2248">
<rect width="50" height="50" fill="white" transform="translate(0 0.295898)"/>
</clipPath>
</defs>
</svg>
