<svg width="58" height="51" viewBox="0 0 58 51" fill="none" xmlns="http://www.w3.org/2000/svg">
<g clip-path="url(#clip0_2861_2246)">
<path d="M52.1737 47.7171V11.7876H43.3851V0.647461L14.6161 7.6011V17.5596H5.82738V47.7171H2.25781V50.6475H55.7433V47.7171H52.1737ZM9.22664 47.7171V20.49H23.5026V47.7171H9.22664ZM26.9019 47.7171V17.5596H18.0152V9.82293L39.9856 4.51256L39.9366 47.7172H26.9019V47.7171ZM43.385 47.7171V14.718H48.7743V47.7171H43.385Z" fill="#7261FF"/>
<path d="M14.665 25.1179H18.0643V31.012H14.665V25.1179Z" fill="#7261FF"/>
<path d="M14.665 35.8823H18.0643V41.7764H14.665V35.8823Z" fill="#7261FF"/>
<path d="M31.0986 25.1179H34.4979V31.012H31.0986V25.1179Z" fill="#7261FF"/>
<path d="M31.0986 14.3533H34.4979V20.2474H31.0986V14.3533Z" fill="#7261FF"/>
<path d="M31.0986 35.8823H34.4979V41.7764H31.0986V35.8823Z" fill="#7261FF"/>
</g>
<defs>
<clipPath id="clip0_2861_2246">
<rect width="58" height="50" fill="white" transform="translate(0 0.647461)"/>
</clipPath>
</defs>
</svg>
